<?xml version="1.0" encoding="iso-8859-1"?>
<!-- Generator: Adobe Illustrator 19.0.0, SVG Export Plug-In . SVG Version: 6.00 Build 0)  -->
<svg version="1.1" id="Capa_1" xmlns="http://www.w3.org/2000/svg" xmlns:xlink="http://www.w3.org/1999/xlink" x="0px" y="0px"
	 viewBox="0 0 512 512" style="enable-background:new 0 0 512 512;" xml:space="preserve">
<path style="fill:#49B6F2;" d="M271.233,0H224.9c-67.49,0-122.396,54.906-122.396,122.396V156c0,2.712,1.464,5.213,3.83,6.541
	c2.365,1.325,5.262,1.274,7.578-0.14C174.67,125.308,227.993,106.5,272.4,106.5c43.995,0,79.266,17.705,107.827,54.128
	c1.45,1.849,3.643,2.872,5.903,2.872c0.817,0,1.643-0.134,2.447-0.411c3.023-1.044,5.052-3.891,5.052-7.089v-33.604
	C393.629,54.906,338.722,0,271.233,0z"/>
<g>
	<path style="fill:#2E93CC;" d="M238.947,106.5c-38.954,0-84.769,14.475-136.443,43.067V156c0,2.712,1.464,5.213,3.83,6.541
		c2.365,1.325,5.262,1.274,7.578-0.14c53.192-32.475,100.684-50.933,141.485-55.027C250.053,106.794,244.573,106.5,238.947,106.5z"
		/>
	<path style="fill:#2E93CC;" d="M271.233,0H237.78c67.489,0,122.396,54.906,122.396,122.396v16.725
		c7.029,6.255,13.706,13.416,20.051,21.507c1.45,1.849,3.643,2.872,5.903,2.872c0.817,0,1.643-0.134,2.447-0.411
		c3.023-1.044,5.052-3.891,5.052-7.089v-33.604C393.629,54.906,338.722,0,271.233,0z"/>
</g>
<path style="fill:#484655;" d="M386.126,176.65v72.64h-27.49c1.01-6.05,1.54-12.27,1.54-18.61v-36.67
	c-90.17-4.89-142.85-27.75-172.76-58.83c-0.81,31-22.46,56.81-51.46,63.92v31.58c0,6.34,0.53,12.56,1.54,18.61h-27.49v-92.05
	c32.66-18.74,81.74-30.65,136.64-30.65c56.51,0,106.86,12.62,139.47,32.31v17.76L386.126,176.65z"/>
<path style="fill:#49B6F2;" d="M300.993,355.943H195.139c-45.69,0-82.862,37.172-82.862,82.862V504.5c0,4.143,3.358,7.5,7.5,7.5
	h256.578c4.142,0,7.5-3.357,7.5-7.5v-65.694C383.855,393.115,346.683,355.943,300.993,355.943z"/>
<path style="fill:#2E93CC;" d="M300.993,355.943h-27.667c45.69,0,82.862,37.172,82.862,82.862V504.5c0,4.143-3.358,7.5-7.5,7.5
	h27.667c4.142,0,7.5-3.357,7.5-7.5v-65.694C383.855,393.115,346.683,355.943,300.993,355.943z"/>
<g>
	<path style="fill:#FA9E3E;" d="M290.166,267.73v100.25c0,23.251-18.849,42.1-42.1,42.1l0,0c-23.251,0-42.1-18.849-42.1-42.1V267.73
		H290.166z"/>
	<path style="fill:#FA9E3E;" d="M117.905,220.99h49.369v56.61h-49.369c-15.632,0-28.305-12.673-28.305-28.305
		S102.273,220.99,117.905,220.99z"/>
	<path style="fill:#FA9E3E;" d="M378.227,220.99h-49.369v56.61h49.369c15.632,0,28.305-12.673,28.305-28.305
		S393.86,220.99,378.227,220.99z"/>
</g>
<path style="fill:#FFB56B;" d="M360.176,194.01v36.67c0,6.34-0.53,12.56-1.54,18.61c-8.86,53.06-54.99,93.5-110.57,93.5
	s-101.71-40.44-110.57-93.5c-1.01-6.05-1.54-12.27-1.54-18.61V199.1c29-7.11,50.65-32.92,51.46-63.92
	C217.326,166.26,270.006,189.12,360.176,194.01z"/>
<path style="fill:#EF9245;" d="M336.847,242.342c0,53.568-41.934,97.338-94.766,100.284c0.061,0.003,0.122,0.007,0.183,0.01
	c0.785,0.04,1.572,0.07,2.36,0.094c0.184,0.006,0.366,0.014,0.55,0.019c0.961,0.025,1.925,0.04,2.892,0.04l0,0l0,0
	c55.58,0,101.71-40.44,110.57-93.5c1.01-6.05,1.54-12.27,1.54-18.61v-36.67c-8.078-0.438-15.843-1.026-23.329-1.746V242.342z"/>
<g>
	<path style="fill:#19303F;" d="M248.066,288.484c-13.494,0-26.142-6.632-33.832-17.739c-2.358-3.405-1.509-8.078,1.896-10.435
		c3.406-2.358,8.078-1.509,10.435,1.896c4.89,7.063,12.927,11.278,21.501,11.278c8.573,0,16.611-4.216,21.501-11.278
		c2.358-3.404,7.029-4.255,10.435-1.896c3.405,2.357,4.254,7.03,1.896,10.435C274.208,281.853,261.56,288.484,248.066,288.484z"/>
	<path style="fill:#19303F;" d="M302.39,232.962c-4.142,0-7.5-3.357-7.5-7.5v-2c0-4.143,3.358-7.5,7.5-7.5s7.5,3.357,7.5,7.5v2
		C309.89,229.605,306.532,232.962,302.39,232.962z"/>
	<path style="fill:#19303F;" d="M193.743,232.962c-4.142,0-7.5-3.357-7.5-7.5v-2c0-4.143,3.358-7.5,7.5-7.5s7.5,3.357,7.5,7.5v2
		C201.243,229.605,197.885,232.962,193.743,232.962z"/>
</g>
<path style="fill:#F0EEEE;" d="M421.323,111.175c-10.133-41.066-89.244-56.856-176.689-35.277
	c-18.861,4.657-36.57,10.668-52.643,17.649c-39.768,17.278-69.52,40.479-81.984,63.69c32.658-18.732,81.741-30.651,136.638-30.651
	c56.508,0,106.86,12.627,139.475,32.316v17.755C412.635,155.755,426.515,132.187,421.323,111.175z"/>
<path style="fill:#D9D4D4;" d="M421.323,111.175c-9.243-37.463-75.894-53.884-153.907-40.096
	c66.555-6.366,120.089,10.311,128.301,43.597c3.368,13.629-1.296,28.333-12.22,42.687c0.884,0.509,1.762,1.02,2.621,1.539v17.755
	C412.635,155.755,426.515,132.187,421.323,111.175z"/>
<path style="fill:#FA8500;" d="M311.556,438.833H184.577c-20.499,0-37.177,16.678-37.177,37.178v14.323V504.5v7.5h7.5h186.333h7.5
	v-7.5v-14.167V476.01C348.733,455.511,332.056,438.833,311.556,438.833z"/>
<g>
	<path style="fill:#19303F;" d="M314.733,469.167c-4.142,0-7.5-3.357-7.5-7.5v-105c0-4.143,3.358-7.5,7.5-7.5s7.5,3.357,7.5,7.5v105
		C322.233,465.81,318.875,469.167,314.733,469.167z"/>
	<path style="fill:#19303F;" d="M181.4,469.167c-4.142,0-7.5-3.357-7.5-7.5v-105c0-4.143,3.358-7.5,7.5-7.5s7.5,3.357,7.5,7.5v105
		C188.9,465.81,185.542,469.167,181.4,469.167z"/>
</g>
<path style="fill:#F0EEEE;" d="M230.733,465.36l9.7,8.366L230.178,512h30.565l8.208-30.632l12.583-2.395
	c10.228-1.947,17.516-11.052,17.174-21.458l-1.06-32.29c-0.131-3.989-2.856-7.422-6.711-8.455l-4.269-1.144
	c-2.366-0.634-4.767,0.894-5.194,3.306l-4.658,26.289c-1.335,7.536-8.838,12.311-16.231,10.331l0,0
	c-7.392-1.981-11.502-9.868-8.891-17.062l9.11-25.096c0.836-2.302-0.479-4.826-2.845-5.46l-4.269-1.144
	c-3.855-1.033-7.932,0.578-10.039,3.967l-17.063,27.434C221.09,447.031,222.848,458.56,230.733,465.36z"/>
<g>
</g>
<g>
</g>
<g>
</g>
<g>
</g>
<g>
</g>
<g>
</g>
<g>
</g>
<g>
</g>
<g>
</g>
<g>
</g>
<g>
</g>
<g>
</g>
<g>
</g>
<g>
</g>
<g>
</g>
</svg>
