<?xml version="1.0" encoding="iso-8859-1"?>
<!-- Generator: Adobe Illustrator 19.0.0, SVG Export Plug-In . SVG Version: 6.00 Build 0)  -->
<svg version="1.1" id="Capa_1" xmlns="http://www.w3.org/2000/svg" xmlns:xlink="http://www.w3.org/1999/xlink" x="0px" y="0px"
	 viewBox="0 0 512 512" style="enable-background:new 0 0 512 512;" xml:space="preserve">
<path style="fill:#2D6CCF;" d="M308.927,355.944H203.073c-45.69,0-82.862,37.172-82.862,82.862V504.5c0,4.142,3.358,7.5,7.5,7.5
	h256.578c4.142,0,7.5-3.358,7.5-7.5v-65.694C391.789,393.116,354.617,355.944,308.927,355.944z"/>
<path style="fill:#2159AA;" d="M308.927,355.944h-26.333c45.69,0,82.862,37.172,82.862,82.862V504.5c0,4.142-3.358,7.5-7.5,7.5
	h26.333c4.142,0,7.5-3.358,7.5-7.5v-65.694C391.789,393.116,354.617,355.944,308.927,355.944z"/>
<path style="fill:#FA9E3E;" d="M298.1,267.73v95.35l-18.765,19.368c-6.12,6.317-14.54,9.882-23.335,9.882l0,0
	c-8.795,0-17.215-3.566-23.335-9.882L213.9,363.08v-95.35L298.1,267.73L298.1,267.73z"/>
<rect x="112" y="189.47" style="fill:#696970;" width="288" height="65.53"/>
<g>
	<path style="fill:#FA9E3E;" d="M125.839,223.99h49.369v56.61h-49.369c-15.632,0-28.305-12.673-28.305-28.305
		S110.207,223.99,125.839,223.99z"/>
	<path style="fill:#FA9E3E;" d="M386.161,223.99h-49.369v56.61h49.369c15.632,0,28.305-12.673,28.305-28.305
		S401.793,223.99,386.161,223.99z"/>
</g>
<path style="fill:#FFB56B;" d="M256,342.79L256,342.79c-61.919,0-112.115-50.195-112.115-112.115V117.281h224.229v113.394
	C368.115,292.595,317.919,342.79,256,342.79z"/>
<path style="fill:#EF9245;" d="M344.781,117.281v125.062c0,53.578-41.949,97.354-94.795,100.286
	c1.992,0.105,3.996,0.161,6.014,0.161l0,0c61.919,0,112.115-50.195,112.115-112.115V117.281H344.781z"/>
<g>
	<path style="fill:#19303F;" d="M310.324,232.962c-4.142,0-7.5-3.358-7.5-7.5v-2c0-4.142,3.358-7.5,7.5-7.5s7.5,3.358,7.5,7.5v2
		C317.824,229.605,314.466,232.962,310.324,232.962z"/>
	<path style="fill:#19303F;" d="M201.676,232.962c-4.142,0-7.5-3.358-7.5-7.5v-2c0-4.142,3.358-7.5,7.5-7.5s7.5,3.358,7.5,7.5v2
		C209.176,229.605,205.818,232.962,201.676,232.962z"/>
	<path style="fill:#19303F;" d="M256,288.484c-13.494,0-26.142-6.631-33.833-17.739c-2.358-3.405-1.509-8.078,1.896-10.435
		c3.405-2.358,8.078-1.509,10.436,1.896c4.89,7.062,12.928,11.278,21.501,11.278c8.573,0,16.61-4.216,21.5-11.278
		c2.358-3.405,7.029-4.254,10.436-1.896c3.405,2.358,4.254,7.03,1.896,10.435C282.142,281.853,269.494,288.484,256,288.484z"/>
</g>
<path style="fill:#FFB700;" d="M269.613,14.477h-27.227c-74.377,0-134.887,60.51-134.887,134.887v33.085c0,4.142,3.358,7.5,7.5,7.5
	h282c4.142,0,7.5-3.358,7.5-7.5v-33.085C404.5,74.987,343.99,14.477,269.613,14.477z"/>
<path style="fill:#D69400;" d="M269.613,14.477h-27.227c-0.402,0-0.8,0.012-1.201,0.015
	c73.825,0.649,133.686,60.896,133.686,134.872v33.085c0,4.142-3.358,7.5-7.5,7.5H397c4.142,0,7.5-3.358,7.5-7.5v-33.085
	C404.5,74.987,343.99,14.477,269.613,14.477z"/>
<path style="fill:#FFD100;" d="M272.507,0h-33.014c-11.355,0-20.594,9.239-20.594,20.595V159.5c0,4.142,3.358,7.5,7.5,7.5h59.203
	c4.142,0,7.5-3.358,7.5-7.5V20.595C293.102,9.239,283.863,0,272.507,0z"/>
<path style="fill:#EFA707;" d="M256,59.046c-23.802,0-43.167,19.365-43.167,43.167s19.365,43.166,43.167,43.166
	s43.167-19.364,43.167-43.166S279.802,59.046,256,59.046z"/>
<path style="fill:#FFB700;" d="M384.289,472H360.5v-94.308c0-2.408-1.156-4.669-3.108-6.08
	c-11.042-7.977-23.644-13.012-36.945-14.86c-0.26-0.037-0.521-0.073-0.782-0.107c-0.536-0.069-1.073-0.137-1.611-0.196
	c-0.695-0.077-1.393-0.144-2.093-0.204c-0.382-0.032-0.765-0.06-1.148-0.087c-0.709-0.05-1.42-0.092-2.134-0.124
	c-0.293-0.013-0.586-0.026-0.879-0.036c-0.954-0.033-1.911-0.056-2.873-0.056H305.5H298v7.5v32.223V504.5c0,4.142,3.358,7.5,7.5,7.5
	h78.789c4.142,0,7.5-3.358,7.5-7.5v-25C391.789,475.358,388.431,472,384.289,472z"/>
<g>
	<path style="fill:#EFA707;" d="M384.289,472h-18.833v32.5c0,4.142-3.358,7.5-7.5,7.5h26.333c4.142,0,7.5-3.358,7.5-7.5v-25
		C391.789,475.358,388.431,472,384.289,472z"/>
	<path style="fill:#EFA707;" d="M360.5,410.582v-32.89c0-2.222-0.994-4.31-2.679-5.729c-7.227-5.3-15.333-9.466-24.066-12.215
		c-0.127-0.04-0.253-0.081-0.38-0.12c-1.163-0.36-2.337-0.693-3.521-1.002c-0.239-0.062-0.479-0.119-0.718-0.179
		c-0.97-0.244-1.947-0.469-2.931-0.678c-0.3-0.063-0.598-0.132-0.899-0.192c-0.994-0.2-1.997-0.374-3.003-0.538
		c-0.493-0.08-0.987-0.158-1.482-0.229c-1.004-0.145-2.012-0.277-3.027-0.386c-0.328-0.035-0.657-0.065-0.985-0.096
		c-0.972-0.092-1.949-0.165-2.931-0.224c-0.358-0.021-0.715-0.046-1.075-0.063c-1.285-0.06-2.576-0.098-3.876-0.098H305.5H298v1.459
		C326.952,362.871,350.633,383.431,360.5,410.582z"/>
</g>
<rect x="298" y="413.5" style="fill:#3D5868;" width="62.5" height="48.5"/>
<rect x="298" y="428.5" style="fill:#FB403F;" width="62.5" height="18.5"/>
<path style="fill:#FFB700;" d="M206.5,355.944h-3.427c-17.517,0-34.276,5.418-48.465,15.669c-1.952,1.41-3.108,3.672-3.108,6.08V472
	h-23.789c-4.142,0-7.5,3.358-7.5,7.5v25c0,4.142,3.358,7.5,7.5,7.5H206.5c4.142,0,7.5-3.358,7.5-7.5V380.333v-16.89v-7.5h-7.5
	V355.944z"/>
<path style="fill:#FFD100;" d="M419.143,152H92.857c-12.399,0-22.486,10.087-22.486,22.486c0,12.399,10.087,22.486,22.486,22.486
	h326.286c12.399,0,22.486-10.087,22.486-22.486S431.542,152,419.143,152z"/>
<rect x="151.4" y="413.5" style="fill:#3D5868;" width="62.5" height="48.5"/>
<rect x="151.4" y="428.5" style="fill:#FB403F;" width="62.5" height="18.5"/>
<g>
</g>
<g>
</g>
<g>
</g>
<g>
</g>
<g>
</g>
<g>
</g>
<g>
</g>
<g>
</g>
<g>
</g>
<g>
</g>
<g>
</g>
<g>
</g>
<g>
</g>
<g>
</g>
<g>
</g>
</svg>
